<svg width="20" height="20" viewBox="0 0 20 20" fill="none" xmlns="http://www.w3.org/2000/svg">
<path fill-rule="evenodd" clip-rule="evenodd" d="M6.66683 10.1667C6.83165 10.1667 6.99276 10.2155 7.1298 10.3071C7.26685 10.3987 7.37366 10.5288 7.43673 10.6811C7.4998 10.8334 7.5163 11.0009 7.48415 11.1626C7.452 11.3242 7.37263 11.4727 7.25609 11.5893C7.13954 11.7058 6.99106 11.7852 6.8294 11.8173C6.66775 11.8495 6.5002 11.833 6.34793 11.7699C6.19565 11.7068 6.06551 11.6 5.97394 11.463C5.88237 11.3259 5.8335 11.1648 5.8335 11C5.8335 10.8906 5.85505 10.7822 5.89693 10.6811C5.93881 10.58 6.00019 10.4881 6.07757 10.4107C6.15496 10.3334 6.24682 10.272 6.34793 10.2301C6.44903 10.1882 6.55739 10.1667 6.66683 10.1667Z" fill="white"/>
<path fill-rule="evenodd" clip-rule="evenodd" d="M10.0002 10.1667C10.165 10.1667 10.3261 10.2155 10.4632 10.3071C10.6002 10.3987 10.707 10.5288 10.7701 10.6811C10.8332 10.8334 10.8497 11.0009 10.8175 11.1626C10.7854 11.3242 10.706 11.4727 10.5895 11.5893C10.4729 11.7058 10.3244 11.7852 10.1628 11.8173C10.0011 11.8495 9.83357 11.833 9.6813 11.7699C9.52903 11.7068 9.39888 11.6 9.30731 11.463C9.21574 11.3259 9.16687 11.1648 9.16687 11C9.16687 10.779 9.25467 10.567 9.41095 10.4107C9.56723 10.2545 9.77919 10.1667 10.0002 10.1667Z" fill="white"/>
<path fill-rule="evenodd" clip-rule="evenodd" d="M13.3335 10.1667C13.4983 10.1667 13.6594 10.2155 13.7964 10.3071C13.9335 10.3987 14.0403 10.5288 14.1034 10.6811C14.1664 10.8334 14.1829 11.0009 14.1508 11.1626C14.1186 11.3242 14.0393 11.4727 13.9227 11.5893C13.8062 11.7058 13.6577 11.7852 13.496 11.8173C13.3344 11.8495 13.1668 11.833 13.0146 11.7699C12.8623 11.7068 12.7321 11.6 12.6406 11.463C12.549 11.3259 12.5001 11.1648 12.5001 11C12.5001 10.779 12.5879 10.567 12.7442 10.4107C12.9005 10.2545 13.1124 10.1667 13.3335 10.1667Z" fill="white"/>
<path fill-rule="evenodd" clip-rule="evenodd" d="M6.66683 14.1667C6.83165 14.1667 6.99276 14.2155 7.1298 14.3071C7.26685 14.3987 7.37366 14.5288 7.43673 14.6811C7.4998 14.8334 7.5163 15.0009 7.48415 15.1626C7.452 15.3242 7.37263 15.4727 7.25609 15.5893C7.13954 15.7058 6.99106 15.7852 6.8294 15.8173C6.66775 15.8495 6.5002 15.833 6.34793 15.7699C6.19565 15.7068 6.06551 15.6 5.97394 15.463C5.88237 15.3259 5.8335 15.1648 5.8335 15C5.8335 14.8906 5.85505 14.7822 5.89693 14.6811C5.93881 14.58 6.00019 14.4881 6.07757 14.4107C6.15496 14.3334 6.24682 14.272 6.34793 14.2301C6.44903 14.1882 6.55739 14.1667 6.66683 14.1667Z" fill="white"/>
<path fill-rule="evenodd" clip-rule="evenodd" d="M10.0002 14.1667C10.165 14.1667 10.3261 14.2155 10.4632 14.3071C10.6002 14.3987 10.707 14.5288 10.7701 14.6811C10.8332 14.8334 10.8497 15.0009 10.8175 15.1626C10.7854 15.3242 10.706 15.4727 10.5895 15.5893C10.4729 15.7058 10.3244 15.7852 10.1628 15.8173C10.0011 15.8495 9.83357 15.833 9.6813 15.7699C9.52903 15.7068 9.39888 15.6 9.30731 15.463C9.21574 15.3259 9.16687 15.1648 9.16687 15C9.16687 14.779 9.25467 14.567 9.41095 14.4107C9.56723 14.2545 9.77919 14.1667 10.0002 14.1667Z" fill="white"/>
<path fill-rule="evenodd" clip-rule="evenodd" d="M13.3335 14.1667C13.4983 14.1667 13.6594 14.2155 13.7964 14.3071C13.9335 14.3987 14.0403 14.5288 14.1034 14.6811C14.1664 14.8334 14.1829 15.0009 14.1508 15.1626C14.1186 15.3242 14.0393 15.4727 13.9227 15.5893C13.8062 15.7058 13.6577 15.7852 13.496 15.8173C13.3344 15.8495 13.1668 15.833 13.0146 15.7699C12.8623 15.7068 12.7321 15.6 12.6406 15.463C12.549 15.3259 12.5001 15.1648 12.5001 15C12.5001 14.779 12.5879 14.567 12.7442 14.4107C12.9005 14.2545 13.1124 14.1667 13.3335 14.1667Z" fill="white"/>
<path d="M17.5209 3.59376C17.2637 3.33508 16.9576 3.13006 16.6206 2.99059C16.2835 2.85111 15.9221 2.77996 15.5573 2.78126H14.4427V1.66667H13.3334V2.77605H6.66669V1.66667H5.55732V2.77605H4.44273C4.07774 2.77605 3.71633 2.84802 3.37918 2.98786C3.04204 3.12769 2.73578 3.33264 2.47793 3.59097C2.22008 3.8493 2.01571 4.15595 1.87651 4.49335C1.73731 4.83076 1.66601 5.1923 1.66669 5.5573V15.5573C1.66669 16.2935 1.95917 16.9996 2.47978 17.5203C3.00038 18.0409 3.70648 18.3333 4.44273 18.3333H15.5573C16.2936 18.3333 16.9997 18.0409 17.5203 17.5203C18.0409 16.9996 18.3334 16.2935 18.3334 15.5573V5.5573C18.3347 5.19252 18.2635 4.83111 18.124 4.49404C17.9846 4.15698 17.7795 3.85096 17.5209 3.59376ZM3.26565 4.37501C3.41978 4.21969 3.60317 4.09646 3.8052 4.01243C4.00724 3.92839 4.22392 3.88523 4.44273 3.88542H5.55732V5.00001H6.66669V3.89063H13.3334V5.00001H14.4427V3.89063H15.5521C15.9941 3.89063 16.4181 4.06623 16.7306 4.37879C17.0432 4.69135 17.2188 5.11527 17.2188 5.5573V6.66667H2.77607V5.5573C2.77518 5.33761 2.81801 5.11994 2.90207 4.91696C2.98612 4.71398 3.10971 4.52975 3.26565 4.37501ZM16.7344 16.7344C16.5803 16.8897 16.3969 17.0129 16.1949 17.097C15.9928 17.181 15.7761 17.2242 15.5573 17.224H4.44273C4.00071 17.224 3.57678 17.0484 3.26422 16.7358C2.95166 16.4232 2.77607 15.9993 2.77607 15.5573V7.77605H17.224V15.5573C17.2242 15.7761 17.181 15.9928 17.097 16.1948C17.0129 16.3969 16.8897 16.5802 16.7344 16.7344Z" fill="white"/>
</svg>
