<svg width="19" height="19" viewBox="0 0 19 19" fill="none" xmlns="http://www.w3.org/2000/svg">
<path d="M17.8617 4.40568V6.36528C17.8617 7.64468 17.0519 8.45443 15.7725 8.45443H13.0032V2.79428C13.0032 1.89546 13.74 1.16669 14.6389 1.16669C15.5215 1.17478 16.3312 1.53107 16.9142 2.11409C17.4973 2.70521 17.8617 3.51496 17.8617 4.40568Z" stroke="#676767" stroke-width="1.5" stroke-miterlimit="10" stroke-linecap="round" stroke-linejoin="round"/>
<path d="M1.66667 5.21543V16.5519C1.66667 17.224 2.42783 17.6046 2.96226 17.1997L4.34694 16.1632C4.67084 15.9203 5.1243 15.9527 5.41581 16.2442L6.75999 17.5965C7.07579 17.9123 7.59403 17.9123 7.90983 17.5965L9.27021 16.2361C9.55363 15.9527 10.0071 15.9203 10.3229 16.1632L11.7076 17.1997C12.242 17.5965 13.0032 17.2159 13.0032 16.5519V2.78619C13.0032 1.89546 13.7319 1.16669 14.6227 1.16669H5.71541H4.90566C2.47642 1.16669 1.66667 2.61614 1.66667 4.40568V5.21543Z" stroke="#676767" stroke-width="1.5" stroke-miterlimit="10" stroke-linecap="round" stroke-linejoin="round"/>
<path d="M7.33491 10.082H9.76416" stroke="#676767" stroke-width="1.5" stroke-linecap="round" stroke-linejoin="round"/>
<path d="M7.33491 6.84302H9.76416" stroke="#676767" stroke-width="1.5" stroke-linecap="round" stroke-linejoin="round"/>
<path d="M4.90211 10.0739H4.90938" stroke="#676767" stroke-width="2" stroke-linecap="round" stroke-linejoin="round"/>
<path d="M4.90211 6.83496H4.90938" stroke="#676767" stroke-width="2" stroke-linecap="round" stroke-linejoin="round"/>
</svg>
