<svg width="18" height="18" viewBox="0 0 18 18" fill="none" xmlns="http://www.w3.org/2000/svg">
<path d="M9.00011 13.7568C9.26836 13.7568 9.49207 13.5664 9.54405 13.3135L9.55577 13.2012C9.55577 12.9329 9.36531 12.7092 9.11241 12.6572L9.00011 12.6455M9.00011 13.7568V12.6455M9.00011 13.7568L8.8878 13.7451C8.67111 13.7007 8.50071 13.5301 8.45616 13.3135L8.44444 13.2012C8.44444 12.8943 8.69328 12.6455 9.00011 12.6455M9.00011 13.7568V12.6455" fill="#676767" stroke="#676767" stroke-width="16"/>
<path d="M12.6772 17.8333H5.32327L6.99049 14.5H11.0088L12.6772 17.8333ZM7.12104 16.7222H10.8783L10.3222 15.6111H7.67715L7.12104 16.7222Z" fill="#676767"/>
<path d="M14 16.7222H4C3.69317 16.7222 3.44444 16.9709 3.44444 17.2777C3.44444 17.5845 3.69317 17.8333 4 17.8333H14C14.3068 17.8333 14.5556 17.5845 14.5556 17.2777C14.5556 16.9709 14.3068 16.7222 14 16.7222Z" fill="#676767"/>
<path d="M14.5553 1.01624C16.1697 1.01624 17.4828 2.32966 17.4831 3.94397V12.8336C17.4829 14.448 16.1697 15.7614 14.5553 15.7614H3.44401C1.82981 15.7611 0.516452 14.4478 0.516275 12.8336V3.94397C0.516511 2.3298 1.82984 1.01647 3.44401 1.01624H14.5553ZM3.44401 2.42737C2.60831 2.4276 1.92764 3.10827 1.92741 3.94397V12.8336C1.92759 13.6694 2.60827 14.35 3.44401 14.3502H14.5553C15.3913 14.3502 16.0718 13.6695 16.0719 12.8336V3.94397C16.0717 3.10812 15.3912 2.42737 14.5553 2.42737H3.44401Z" fill="#676767" stroke="#676767" stroke-width="0.3"/>
<path d="M10.9788 4.02506L13.0222 3.81617C13.42 3.77561 13.7755 4.06506 13.8161 4.46284L14.025 6.50617C14.0561 6.81117 13.8338 7.08395 13.5288 7.11506C13.2238 7.14617 12.9511 6.92395 12.92 6.61895L12.7505 4.96061L11.0922 5.13006C10.7872 5.16117 10.5144 4.93895 10.4833 4.63395C10.4522 4.32895 10.6738 4.05617 10.9788 4.02506Z" fill="#676767"/>
<path d="M4.1605 9.26557C3.92995 9.06279 3.90772 8.71168 4.1105 8.48113L6.34939 5.93613C6.64939 5.59502 7.08217 5.39446 7.53717 5.38724H7.56439C8.00939 5.38724 8.43772 5.57224 8.74328 5.89668L9.57106 6.77724C9.66828 6.88057 9.79883 6.93724 9.93995 6.93724H9.94272C10.0855 6.93668 10.2172 6.87835 10.3138 6.77335L12.6272 4.25391L13.4455 5.00557L11.1322 7.52502C10.8288 7.85557 10.3977 8.04613 9.94939 8.04891C9.5055 8.03335 9.06828 7.86557 8.76161 7.53891L7.93384 6.65891C7.83439 6.55335 7.71383 6.50335 7.5555 6.49891C7.41106 6.50113 7.27939 6.56224 7.18384 6.67113L4.94495 9.21613C4.74217 9.44668 4.39106 9.46891 4.1605 9.26613V9.26557Z" fill="#676767"/>
<path d="M16.9273 10.6407V12.0519H1.07183V10.6407H16.9273Z" fill="#676767" stroke="#676767" stroke-width="0.3"/>
</svg>
