<svg width="19" height="17" viewBox="0 0 19 17" fill="none" xmlns="http://www.w3.org/2000/svg">
<path d="M13.5824 11.144C14.9125 11.3416 15.9262 11.7079 16.6185 12.3354C17.3279 12.9788 17.8088 13.9952 17.8089 15.7251C17.8089 15.9227 17.6481 16.0835 17.4505 16.0835H1.94076C1.74332 16.0833 1.58333 15.9226 1.58333 15.7251C1.58341 13.9951 2.06423 12.9788 2.77376 12.3354C3.46591 11.708 4.47914 11.3416 5.80892 11.144C6.14289 12.4489 6.75063 13.6616 7.58529 14.7046C8.25528 15.5418 9.55833 15.1162 9.6849 14.105L9.69564 14.0142L9.70736 14.105C9.83388 15.1163 11.137 15.5417 11.807 14.7046C12.6416 13.6617 13.2484 12.4488 13.5824 11.144Z" stroke="#676767" stroke-width="1.5"/>
<path d="M9.69593 0.916626C11.4952 0.916626 12.9537 2.37513 12.9537 4.17444C12.9537 5.8299 12.5342 7.17706 11.9108 8.08752C11.2897 8.99454 10.4982 9.43616 9.69593 9.43616C8.89362 9.43614 8.10212 8.99456 7.48109 8.08752C6.8577 7.17706 6.43812 5.8299 6.43812 4.17444C6.43815 2.37515 7.89664 0.916657 9.69593 0.916626Z" stroke="#676767" stroke-width="1.5"/>
</svg>
