<svg width="18" height="17" viewBox="0 0 18 17" fill="none" xmlns="http://www.w3.org/2000/svg">
<path fill-rule="evenodd" clip-rule="evenodd" d="M5.66681 8.66669C5.83162 8.66669 5.99274 8.71556 6.12978 8.80713C6.26682 8.8987 6.37363 9.02885 6.43671 9.18112C6.49978 9.33339 6.51628 9.50094 6.48413 9.66259C6.45197 9.82425 6.37261 9.97273 6.25606 10.0893C6.13952 10.2058 5.99103 10.2852 5.82938 10.3173C5.66773 10.3495 5.50018 10.333 5.3479 10.2699C5.19563 10.2068 5.06548 10.1 4.97392 9.96299C4.88235 9.82595 4.83347 9.66484 4.83347 9.50002C4.83347 9.39058 4.85503 9.28222 4.89691 9.18112C4.93879 9.08001 5.00017 8.98815 5.07755 8.91076C5.15493 8.83338 5.2468 8.772 5.3479 8.73012C5.44901 8.68824 5.55737 8.66669 5.66681 8.66669Z" fill="#8210FB"/>
<path fill-rule="evenodd" clip-rule="evenodd" d="M9.00014 8.66669C9.16496 8.66669 9.32607 8.71556 9.46311 8.80713C9.60015 8.8987 9.70696 9.02885 9.77004 9.18112C9.83311 9.33339 9.84961 9.50094 9.81746 9.66259C9.7853 9.82425 9.70594 9.97273 9.58939 10.0893C9.47285 10.2058 9.32436 10.2852 9.16271 10.3173C9.00106 10.3495 8.83351 10.333 8.68124 10.2699C8.52896 10.2068 8.39881 10.1 8.30725 9.96299C8.21568 9.82595 8.16681 9.66484 8.16681 9.50002C8.16681 9.27901 8.2546 9.06704 8.41088 8.91076C8.56716 8.75448 8.77912 8.66669 9.00014 8.66669Z" fill="#8210FB"/>
<path fill-rule="evenodd" clip-rule="evenodd" d="M12.3335 8.66669C12.4983 8.66669 12.6594 8.71556 12.7965 8.80713C12.9335 8.8987 13.0403 9.02885 13.1034 9.18112C13.1664 9.33339 13.1829 9.50094 13.1508 9.66259C13.1186 9.82425 13.0393 9.97273 12.9227 10.0893C12.8062 10.2058 12.6577 10.2852 12.4961 10.3173C12.3344 10.3495 12.1668 10.333 12.0146 10.2699C11.8623 10.2068 11.7322 10.1 11.6406 9.96299C11.549 9.82595 11.5001 9.66484 11.5001 9.50002C11.5001 9.27901 11.5879 9.06704 11.7442 8.91076C11.9005 8.75448 12.1125 8.66669 12.3335 8.66669Z" fill="#8210FB"/>
<path fill-rule="evenodd" clip-rule="evenodd" d="M5.66681 12.6667C5.83162 12.6667 5.99274 12.7156 6.12978 12.8071C6.26682 12.8987 6.37363 13.0288 6.43671 13.1811C6.49978 13.3334 6.51628 13.5009 6.48413 13.6626C6.45197 13.8242 6.37261 13.9727 6.25606 14.0893C6.13952 14.2058 5.99103 14.2852 5.82938 14.3173C5.66773 14.3495 5.50018 14.333 5.3479 14.2699C5.19563 14.2068 5.06548 14.1 4.97392 13.963C4.88235 13.826 4.83347 13.6648 4.83347 13.5C4.83347 13.3906 4.85503 13.2822 4.89691 13.1811C4.93879 13.08 5.00017 12.9881 5.07755 12.9108C5.15493 12.8334 5.2468 12.772 5.3479 12.7301C5.44901 12.6882 5.55737 12.6667 5.66681 12.6667Z" fill="#8210FB"/>
<path fill-rule="evenodd" clip-rule="evenodd" d="M9.00014 12.6667C9.16496 12.6667 9.32607 12.7156 9.46311 12.8071C9.60015 12.8987 9.70696 13.0288 9.77004 13.1811C9.83311 13.3334 9.84961 13.5009 9.81746 13.6626C9.7853 13.8242 9.70594 13.9727 9.58939 14.0893C9.47285 14.2058 9.32436 14.2852 9.16271 14.3173C9.00106 14.3495 8.83351 14.333 8.68124 14.2699C8.52896 14.2068 8.39881 14.1 8.30725 13.963C8.21568 13.826 8.16681 13.6648 8.16681 13.5C8.16681 13.279 8.2546 13.067 8.41088 12.9108C8.56716 12.7545 8.77912 12.6667 9.00014 12.6667Z" fill="#8210FB"/>
<path fill-rule="evenodd" clip-rule="evenodd" d="M12.3335 12.6667C12.4983 12.6667 12.6594 12.7156 12.7965 12.8071C12.9335 12.8987 13.0403 13.0288 13.1034 13.1811C13.1664 13.3334 13.1829 13.5009 13.1508 13.6626C13.1186 13.8242 13.0393 13.9727 12.9227 14.0893C12.8062 14.2058 12.6577 14.2852 12.4961 14.3173C12.3344 14.3495 12.1668 14.333 12.0146 14.2699C11.8623 14.2068 11.7322 14.1 11.6406 13.963C11.549 13.826 11.5001 13.6648 11.5001 13.5C11.5001 13.279 11.5879 13.067 11.7442 12.9108C11.9005 12.7545 12.1125 12.6667 12.3335 12.6667Z" fill="#8210FB"/>
<path d="M16.5208 2.09377C16.2636 1.8351 15.9576 1.63008 15.6206 1.4906C15.2835 1.35113 14.9221 1.27997 14.5573 1.28127H13.4427V0.166687H12.3333V1.27606H5.66667V0.166687H4.5573V1.27606H3.44271C3.07772 1.27606 2.71631 1.34804 2.37916 1.48787C2.04202 1.62771 1.73576 1.83266 1.47791 2.09099C1.22006 2.34932 1.01569 2.65596 0.876488 2.99337C0.737285 3.33077 0.665986 3.69232 0.666671 4.05731V14.0573C0.666671 14.7936 0.959146 15.4997 1.47975 16.0203C2.00036 16.5409 2.70646 16.8334 3.44271 16.8334H14.5573C15.2935 16.8334 15.9996 16.5409 16.5203 16.0203C17.0409 15.4997 17.3333 14.7936 17.3333 14.0573V4.05731C17.3346 3.69253 17.2635 3.33112 17.124 2.99406C16.9845 2.65699 16.7795 2.35098 16.5208 2.09377ZM2.26563 2.87502C2.41976 2.71971 2.60314 2.59647 2.80518 2.51244C3.00721 2.42841 3.2239 2.38524 3.44271 2.38544H4.5573V3.50002H5.66667V2.39065H12.3333V3.50002H13.4427V2.39065H14.5521C14.9941 2.39065 15.418 2.56624 15.7306 2.8788C16.0432 3.19136 16.2188 3.61528 16.2188 4.05731V5.16669H1.77605V4.05731C1.77516 3.83762 1.81799 3.61995 1.90204 3.41697C1.9861 3.214 2.10969 3.02977 2.26563 2.87502ZM15.7344 15.2344C15.5802 15.3897 15.3969 15.5129 15.1948 15.597C14.9928 15.681 14.7761 15.7242 14.5573 15.724H3.44271C3.00069 15.724 2.57676 15.5484 2.2642 15.2358C1.95164 14.9233 1.77605 14.4993 1.77605 14.0573V6.27606H16.224V14.0573C16.2242 14.2761 16.181 14.4928 16.097 14.6948C16.0129 14.8969 15.8897 15.0803 15.7344 15.2344Z" fill="#8210FB"/>
</svg>
