<svg width="14" height="19" viewBox="0 0 14 19" fill="none" xmlns="http://www.w3.org/2000/svg">
<path d="M7.18785 8.62919C7.10372 8.62077 7.00276 8.62077 6.91021 8.62919C4.90786 8.56188 3.31775 6.9213 3.31775 4.90211C3.31775 2.84086 4.98358 1.16663 7.05324 1.16663C9.11449 1.16663 10.7887 2.84086 10.7887 4.90211C10.7803 6.9213 9.19021 8.56188 7.18785 8.62919Z" stroke="#676767" stroke-width="1.5" stroke-linecap="round" stroke-linejoin="round"/>
<path d="M2.98135 11.7337C0.945343 13.0966 0.945343 15.3177 2.98135 16.6723C5.295 18.2203 9.08938 18.2203 11.403 16.6723C13.439 15.3093 13.439 13.0882 11.403 11.7337C9.09779 10.1941 5.30341 10.1941 2.98135 11.7337Z" stroke="#676767" stroke-width="1.5" stroke-linecap="round" stroke-linejoin="round"/>
</svg>
