<svg width="18" height="19" viewBox="0 0 18 19" fill="none" xmlns="http://www.w3.org/2000/svg">
<path d="M13.1667 1.01624C15.5507 1.01624 17.4831 2.94959 17.4831 5.33362V13.6666C17.4831 16.0506 15.5507 17.983 13.1667 17.983H4.83366C2.44963 17.983 0.516275 16.0506 0.516275 13.6666V5.33362C0.516275 2.94959 2.44963 1.01624 4.83366 1.01624H13.1667ZM4.83366 2.15002C4.20279 2.15002 3.40512 2.60395 2.75456 3.25452C2.10399 3.90508 1.65006 4.70275 1.65006 5.33362V13.6666C1.65006 14.2974 2.10417 15.0943 2.75456 15.7448C3.40512 16.3953 4.20279 16.8502 4.83366 16.8502H13.1667C13.7976 16.8502 14.5942 16.3953 15.2448 15.7448C15.8954 15.0942 16.3503 14.2975 16.3503 13.6666V5.33362C16.3503 4.70275 15.8954 3.90508 15.2448 3.25452C14.5943 2.60413 13.7974 2.15002 13.1667 2.15002H4.83366Z" fill="#676767" stroke="#676767" stroke-width="0.3"/>
<path fill-rule="evenodd" clip-rule="evenodd" d="M12.3334 10.3333C12.7936 10.3333 13.1667 10.7063 13.1667 11.1666V12.8333C13.1667 13.2935 12.7936 13.6666 12.3334 13.6666C11.8731 13.6666 11.5001 13.2935 11.5001 12.8333V11.1666C11.5001 10.7063 11.8731 10.3333 12.3334 10.3333Z" fill="#676767"/>
<path fill-rule="evenodd" clip-rule="evenodd" d="M5.6666 5.33325C6.12683 5.33325 6.49993 5.70635 6.49993 6.16659V12.8333C6.49993 13.2935 6.12683 13.6666 5.6666 13.6666C5.20636 13.6666 4.83327 13.2935 4.83327 12.8333V6.16659C4.83327 5.70635 5.20637 5.33325 5.6666 5.33325Z" fill="#676767"/>
<path fill-rule="evenodd" clip-rule="evenodd" d="M9 7.83325C9.46025 7.83325 9.83333 8.20634 9.83333 8.66659V12.8333C9.83333 13.2935 9.46025 13.6666 9 13.6666C8.53975 13.6666 8.16667 13.2935 8.16667 12.8333V8.66659C8.16667 8.20634 8.53975 7.83325 9 7.83325Z" fill="#676767"/>
</svg>
