<svg width="17" height="19" viewBox="0 0 17 19" fill="none" xmlns="http://www.w3.org/2000/svg">
<path d="M4.025 15.9166C4.70833 15.1833 5.75 15.2416 6.35 16.0416L7.19167 17.1666C7.86667 18.0583 8.95833 18.0583 9.63333 17.1666L10.475 16.0416C11.075 15.2416 12.1167 15.1833 12.8 15.9166C14.2833 17.5 15.4917 16.975 15.4917 14.7583V5.36663C15.5 2.00829 14.7167 1.16663 11.5667 1.16663H5.26667C2.11667 1.16663 1.33333 2.00829 1.33333 5.36663V14.75C1.33333 16.975 2.55 17.4916 4.025 15.9166Z" stroke="#676767" stroke-width="1.5" stroke-linecap="round" stroke-linejoin="round"/>
<path d="M5.16339 8.66667H5.17088" stroke="#676767" stroke-width="2" stroke-linecap="round" stroke-linejoin="round"/>
<path d="M7.4987 8.66663H12.082" stroke="#676767" stroke-width="1.5" stroke-linecap="round" stroke-linejoin="round"/>
<path d="M5.16339 5.33329H5.17088" stroke="#676767" stroke-width="2" stroke-linecap="round" stroke-linejoin="round"/>
<path d="M7.4987 5.33337H12.082" stroke="#676767" stroke-width="1.5" stroke-linecap="round" stroke-linejoin="round"/>
</svg>
