<svg width="15" height="19" viewBox="0 0 15 19" fill="none" xmlns="http://www.w3.org/2000/svg">
<path d="M6.19695 6.77722C6.46523 6.77722 6.68325 6.99429 6.68327 7.26257C6.68327 7.53087 6.46525 7.7489 6.19695 7.7489H3.7282C3.45996 7.74887 3.24284 7.53086 3.24284 7.26257C3.24287 6.99431 3.45993 6.77725 3.7282 6.77722H6.19695Z" fill="#676767" stroke="#676767" stroke-width="0.2"/>
<path d="M8.51237 9.28491C8.78049 9.28508 8.9977 9.50209 8.99773 9.77026C8.99773 10.0385 8.78052 10.2564 8.51237 10.2566H3.7282C3.45992 10.2566 3.24284 10.0385 3.24284 9.77026C3.24287 9.502 3.45993 9.28494 3.7282 9.28491H8.51237Z" fill="#676767" stroke="#676767" stroke-width="0.2"/>
<path d="M8.51237 11.7926C8.78049 11.7928 8.9977 12.0098 8.99773 12.278C8.99773 12.5461 8.78052 12.7631 8.51237 12.7633H3.7282C3.45992 12.7633 3.24284 12.5462 3.24284 12.278C3.24287 12.0097 3.45993 11.7926 3.7282 11.7926H8.51237Z" fill="#676767" stroke="#676767" stroke-width="0.2"/>
<path d="M12.5824 1.01721V1.01819C12.6171 1.01731 12.6521 1.01674 12.6868 1.01819C13.5445 1.05394 14.2114 1.77634 14.179 2.63342V14.7858H14.1781C14.1937 15.0672 14.0417 15.3307 13.7894 15.4576C13.7099 15.4995 13.6211 15.5182 13.5316 15.5133C13.528 15.5134 13.5244 15.5132 13.5208 15.5133C13.5186 15.5131 13.5163 15.5135 13.514 15.5133V15.5123C13.331 15.5138 13.1551 15.4459 13.0218 15.3199V15.3209L11.9368 14.3424L11.8646 14.3971V17.0621H11.8636C11.8779 17.336 11.7377 17.5952 11.4993 17.7321L11.4954 17.734C11.2428 17.8698 10.9317 17.8111 10.7445 17.5963L9.68685 16.6266L8.38021 17.7906C8.13815 18.007 7.788 18.0341 7.51888 17.8717L7.40853 17.7906L6.11946 16.6266L4.83138 17.7906L4.8304 17.7916C4.69757 17.9089 4.52797 17.9764 4.35091 17.983H4.3431C4.16354 17.9805 3.9917 17.9115 3.8597 17.7897V17.7906L2.55208 16.6256L1.47786 17.5934L1.47884 17.5944C1.26006 17.8045 0.935999 17.8614 0.658527 17.7389L0.655598 17.7379C0.393701 17.6157 0.214634 17.3652 0.183918 17.0778L0.182941 17.0699V4.88342H0.183918C0.22788 3.92277 1.0086 3.1604 1.97005 3.13928H2.49837V2.63342C2.49837 1.68105 3.37844 1.01731 4.28743 1.01721H12.5824ZM1.83919 4.22913C1.52558 4.30079 1.28562 4.56688 1.25521 4.89709V16.3033L2.00814 15.6373C2.26098 15.4104 2.62599 15.3751 2.91439 15.5348L3.03255 15.6149L3.03743 15.6188L4.34505 16.7828L5.63411 15.6198L5.63997 15.6139H5.64095C5.88619 15.4176 6.22175 15.3925 6.48958 15.5397L6.59993 15.6139L6.60775 15.6198H6.60677L7.8763 16.7819L9.18392 15.6188C9.45762 15.3682 9.88037 15.379 10.1409 15.6432L10.7923 16.2799V4.89026C10.7923 4.70565 10.7374 4.53058 10.6439 4.40588C10.5525 4.28428 10.4256 4.21057 10.2669 4.21057H1.97884L1.83919 4.22913ZM4.28743 2.0885C4.10489 2.08855 3.91976 2.14755 3.78353 2.24768C3.649 2.3466 3.56966 2.47913 3.56966 2.63342V3.13928H10.2679C11.2183 3.13956 11.8646 3.97931 11.8646 4.89026V13.1715C11.97 13.162 12.0561 13.1611 12.1312 13.1823C12.2502 13.2158 12.3248 13.2937 12.3949 13.3639L13.1077 14.0192V2.61877L13.1087 2.5426C13.0913 2.27454 12.8602 2.0712 12.5921 2.0885L12.5824 2.08948V2.0885H4.28743Z" fill="#676767" stroke="#676767" stroke-width="0.3"/>
</svg>
