<svg width="20" height="17" viewBox="0 0 20 17" fill="none" xmlns="http://www.w3.org/2000/svg">
<path d="M13.2703 16.8175H6.72969C5.8699 16.8175 4.86027 16.2348 4.43097 15.4904L1.16066 9.82739C0.724225 9.07106 0.724225 7.92943 1.16066 7.1725L4.43156 1.50952C4.86086 0.765082 5.8705 0.182373 6.73029 0.182373H13.2703C14.1301 0.182373 15.1397 0.765082 15.569 1.50952L18.8393 7.1725C19.2758 7.92883 19.2758 9.07047 18.8393 9.82739L15.5684 15.4904C15.1397 16.2348 14.1295 16.8175 13.2703 16.8175ZM6.72969 1.37098C6.28672 1.37098 5.68201 1.72001 5.46082 2.10353L2.18992 7.76651C1.96872 8.15003 1.96872 8.84868 2.18992 9.2322L5.46022 14.8952C5.68201 15.2793 6.28672 15.6277 6.7291 15.6277H13.2703C13.7133 15.6277 14.318 15.2787 14.5392 14.8952L17.8101 9.2322C18.0313 8.84868 18.0313 8.15003 17.8101 7.76651L14.5398 2.10353C14.318 1.71942 13.7133 1.37098 13.2709 1.37098H6.72969ZM10 12.0173C8.05982 12.0173 6.48175 10.4392 6.48175 8.49965C6.48175 6.56006 8.05982 4.98199 10 4.98199C11.9402 4.98199 13.5183 6.56006 13.5183 8.49965C13.5183 10.4392 11.9402 12.0173 10 12.0173ZM10 6.17119C8.71566 6.17119 7.67095 7.21591 7.67095 8.49965C7.67095 9.78339 8.71566 10.8281 10 10.8281C11.2843 10.8281 12.3291 9.78339 12.3291 8.49965C12.3291 7.21591 11.2843 6.17119 10 6.17119Z" fill="#676767"/>
</svg>
