<svg width="18" height="19" viewBox="0 0 18 19" fill="none" xmlns="http://www.w3.org/2000/svg">
<path d="M1.50824 8.84998V12.5916C1.50824 16.3333 3.00824 17.8333 6.7499 17.8333H11.2416C14.9832 17.8333 16.4832 16.3333 16.4832 12.5916V8.84998" stroke="#676767" stroke-width="1.5" stroke-linecap="round" stroke-linejoin="round"/>
<path d="M8.9999 9.49996C10.5249 9.49996 11.6499 8.25829 11.4999 6.73329L10.9499 1.16663H7.05824L6.4999 6.73329C6.3499 8.25829 7.4749 9.49996 8.9999 9.49996Z" stroke="#676767" stroke-width="1.5" stroke-linecap="round" stroke-linejoin="round"/>
<path d="M14.2582 9.49996C15.9416 9.49996 17.1749 8.13329 17.0082 6.45829L16.7749 4.16663C16.4749 1.99996 15.6416 1.16663 13.4582 1.16663H10.9166L11.4999 7.00829C11.6416 8.38329 12.8832 9.49996 14.2582 9.49996Z" stroke="#676767" stroke-width="1.5" stroke-linecap="round" stroke-linejoin="round"/>
<path d="M3.6999 9.49996C5.0749 9.49996 6.31657 8.38329 6.4499 7.00829L6.63324 5.16663L7.03324 1.16663H4.49157C2.30824 1.16663 1.4749 1.99996 1.1749 4.16663L0.949902 6.45829C0.783235 8.13329 2.01657 9.49996 3.6999 9.49996Z" stroke="#676767" stroke-width="1.5" stroke-linecap="round" stroke-linejoin="round"/>
<path d="M8.9999 13.6666C7.60824 13.6666 6.91657 14.3583 6.91657 15.75V17.8333H11.0832V15.75C11.0832 14.3583 10.3916 13.6666 8.9999 13.6666Z" stroke="#676767" stroke-width="1.5" stroke-linecap="round" stroke-linejoin="round"/>
</svg>
